<?xml version="1.0" encoding="utf-8"?>
<!-- Generator: Adobe Illustrator 15.0.0, SVG Export Plug-In . SVG Version: 6.00 Build 0)  -->
<!DOCTYPE svg PUBLIC "-//W3C//DTD SVG 1.1//EN" "http://www.w3.org/Graphics/SVG/1.1/DTD/svg11.dtd">
<svg version="1.1" id="图层_1" xmlns="http://www.w3.org/2000/svg" xmlns:xlink="http://www.w3.org/1999/xlink" x="0px" y="0px"
	 width="45px" height="36px" viewBox="0 0 45 36" enable-background="new 0 0 45 36" xml:space="preserve">
<g>
	<path fill="#FFFFFF" d="M7.313,34.833H6.069c-0.006,0-0.011-0.005-0.011-0.011v-4.574c0-0.006,0.005-0.011,0.011-0.011h1.244
		c0.006,0,0.011,0.005,0.011,0.011v4.574C7.324,34.828,7.319,34.833,7.313,34.833z"/>
	<path fill="#FFFFFF" d="M23.75,33.9v-3.649c0-0.008-0.006-0.014-0.012-0.014h-1.236c-0.008,0-0.014,0.006-0.014,0.014v4.054
		c0,0.292,0.236,0.528,0.527,0.528h4.059c0.146,0,0.264-0.118,0.264-0.264v-0.522c0-0.008-0.006-0.014-0.012-0.014h-3.443
		C23.811,34.033,23.75,33.974,23.75,33.9z"/>
	<path fill="#FFFFFF" d="M15.527,33.9v-2.731c0-0.072,0.059-0.133,0.132-0.133h3.225c0.146,0,0.264-0.117,0.264-0.264v-0.521
		c0-0.008-0.006-0.014-0.013-0.014h-4.342c-0.292,0-0.528,0.236-0.528,0.528v3.539c0,0.292,0.237,0.528,0.528,0.528h3.827
		c0.292,0,0.528-0.236,0.528-0.528v-2.084c0-0.007-0.006-0.014-0.013-0.014H17.05c-0.008,0-0.014,0.007-0.014,0.014v0.521
		c0,0.146,0.118,0.265,0.265,0.265h0.453c0.072,0,0.132,0.059,0.132,0.132V33.9c0,0.073-0.06,0.133-0.132,0.133h-2.095
		C15.585,34.033,15.527,33.974,15.527,33.9z"/>
	<path fill="#FFFFFF" d="M3.332,32.551c-0.106-0.112-0.255-0.177-0.41-0.177h-0.1c-0.056,0-0.083-0.067-0.043-0.106l2.071-2.022
		c0.003-0.003,0.001-0.008-0.004-0.008H3.422c-0.016,0-0.03,0.006-0.042,0.017l-1.588,1.551c-0.002,0.003-0.007,0.001-0.007-0.003
		v-1.551c0-0.008-0.006-0.014-0.014-0.014H0.537c-0.007,0-0.014,0.006-0.014,0.014v4.568c0,0.007,0.006,0.014,0.014,0.014h1.235
		c0.008,0,0.014-0.007,0.014-0.014v-2.17H1.79c0.111,0,0.217,0.046,0.293,0.127l1.919,2.038c0.011,0.012,0.027,0.019,0.043,0.019
		H5.47c0.004,0,0.006-0.005,0.003-0.008L3.332,32.551z"/>
	<path fill="#FFFFFF" d="M12.163,30.251v3.07c0,0.004-0.004,0.006-0.007,0.003l-2.44-2.899c-0.1-0.119-0.248-0.188-0.404-0.188
		H8.883H8.176c-0.007,0-0.014,0.006-0.014,0.014v4.568c0,0.007,0.006,0.014,0.014,0.014h1.235c0.008,0,0.014-0.007,0.014-0.014
		v-3.071c0-0.004,0.005-0.005,0.007-0.002l2.439,2.898c0.101,0.119,0.249,0.188,0.405,0.188h0.314h0.82
		c0.008,0,0.014-0.007,0.014-0.014v-4.568c0-0.008-0.006-0.014-0.014-0.014h-1.235C12.169,30.237,12.163,30.243,12.163,30.251z"/>
	<path fill="#FFFFFF" d="M37.484,30.251v3.07c0,0.004-0.004,0.006-0.008,0.003l-2.438-2.899c-0.102-0.119-0.25-0.188-0.404-0.188
		h-0.43h-0.707c-0.008,0-0.014,0.006-0.014,0.014v4.568c0,0.007,0.006,0.014,0.014,0.014h1.234c0.008,0,0.016-0.007,0.016-0.014
		v-3.071c0-0.004,0.004-0.005,0.006-0.002l2.439,2.898c0.102,0.119,0.248,0.188,0.406,0.188h0.314h0.818
		c0.01,0,0.016-0.007,0.016-0.014v-4.568c0-0.008-0.006-0.014-0.016-0.014h-1.234C37.49,30.237,37.484,30.243,37.484,30.251z"/>
	<path fill="#FFFFFF" d="M40.85,33.9v-2.731c0-0.072,0.059-0.133,0.133-0.133h3.225c0.146,0,0.264-0.117,0.264-0.264v-0.521
		c0-0.008-0.006-0.014-0.014-0.014h-4.342c-0.291,0-0.527,0.236-0.527,0.528v3.539c0,0.292,0.236,0.528,0.527,0.528h3.828
		c0.291,0,0.527-0.236,0.527-0.528v-2.084c0-0.007-0.006-0.014-0.014-0.014h-2.084c-0.008,0-0.014,0.007-0.014,0.014v0.521
		c0,0.146,0.119,0.265,0.264,0.265h0.453c0.072,0,0.133,0.059,0.133,0.132V33.9c0,0.073-0.061,0.133-0.133,0.133h-2.094
		C40.908,34.033,40.85,33.974,40.85,33.9z"/>
	<path fill="#FFFFFF" d="M32.117,30.237h-3.842c-0.291,0-0.527,0.236-0.527,0.528v3.539c0,0.292,0.236,0.528,0.527,0.528h3.842
		c0.293,0,0.529-0.236,0.529-0.528v-3.539C32.646,30.474,32.41,30.237,32.117,30.237z M31.385,31.169V33.9
		c0,0.073-0.061,0.133-0.133,0.133h-2.109c-0.074,0-0.133-0.06-0.133-0.133v-2.731c0-0.072,0.059-0.133,0.133-0.133h2.109
		C31.324,31.036,31.385,31.097,31.385,31.169z"/>
</g>
<path fill-rule="evenodd" clip-rule="evenodd" fill="#CA101A" d="M1.857,14.421c0-7.097,9.244-12.847,20.645-12.847
	c11.406,0,20.642,5.75,20.642,12.847c0,7.105-9.235,12.868-20.642,12.868C11.102,27.289,1.857,21.526,1.857,14.421 M5.135,14.421
	c0,6.042,7.776,10.934,17.367,10.934c2.671,0,5.208-0.378,7.472-1.069c-0.006,0,0.21-0.05,0.318-0.327
	c0.056-0.166,0.04-0.366-0.159-0.582l-8.725-6.825c0,0-2.498-2.21-4.939-2.21h-5.566c0,0-0.461,0.031-0.638-0.356
	c0,0-0.203-0.45,0.29-0.834l6.762-5.505c0,0,1.155-0.784,2.418-0.784h6.473h0.605c0,0,0.364-0.063,0.474,0.268
	c0,0,0.097,0.198-0.071,0.413l-6.823,5.406c0,0-0.185,0.126-0.191,0.324c-0.003,0.146,0.07,0.36,0.381,0.393h5.672
	c0,0,1.636,0.047,2.81,1.001l6.823,5.52c0,0,0.879,0.607,1.638-0.29c1.493-1.601,2.354-3.47,2.354-5.477
	c0-6.034-7.776-10.925-17.377-10.925C12.911,3.496,5.135,8.387,5.135,14.421z"/>
</svg>
